<?xml version="1.0" standalone="no"?>
<!DOCTYPE svg PUBLIC "-//W3C//DTD SVG 20010904//EN"
 "http://www.w3.org/TR/2001/REC-SVG-20010904/DTD/svg10.dtd">
<svg version="1.0" xmlns="http://www.w3.org/2000/svg"
 width="882.000000pt" height="882.000000pt" viewBox="0 0 882.000000 882.000000"
 preserveAspectRatio="xMidYMid meet">

<g transform="translate(0.000000,882.000000) scale(0.100000,-0.100000)"
fill="#000000" stroke="none">
<path d="M3756 8498 c-18 -16 -65 -119 -151 -328 -70 -168 -183 -442 -252
-610 -69 -168 -169 -408 -223 -535 -54 -126 -153 -360 -220 -520 -251 -596
-496 -1175 -923 -2175 -168 -393 -335 -786 -372 -873 -37 -87 -64 -165 -61
-174 4 -10 14 -13 30 -9 43 11 1150 536 1168 554 9 9 36 62 59 117 23 55 127
307 231 560 104 253 199 481 210 508 l20 47 372 0 c272 1 377 4 392 13 20 11
562 669 584 709 7 12 5 21 -6 32 -14 14 -77 16 -540 16 -288 0 -524 3 -524 7
0 7 128 320 305 748 64 154 170 412 237 573 66 161 122 291 123 290 2 -2 79
-192 173 -423 93 -231 176 -432 183 -447 l12 -28 281 0 c235 0 285 3 303 15
12 8 61 90 108 181 l87 166 -15 37 c-8 20 -59 133 -112 251 -54 118 -196 460
-316 759 -121 300 -225 548 -232 553 -6 4 -213 8 -459 8 l-447 0 -25 -22z
m1136 -551 c119 -298 266 -653 327 -788 l112 -245 -87 -162 -86 -162 -265 2
-265 3 -174 430 c-96 237 -184 456 -196 488 -12 32 -24 54 -28 50 -4 -4 -17
-33 -29 -63 -12 -30 -77 -185 -143 -345 -93 -224 -528 -1277 -555 -1342 -4
-10 108 -13 541 -13 300 0 546 -3 545 -7 0 -5 -125 -161 -277 -348 l-278 -340
-388 0 -389 0 -184 -445 c-101 -245 -218 -528 -260 -629 l-77 -183 -70 -33
c-39 -18 -291 -137 -560 -264 -269 -127 -491 -230 -493 -228 -3 4 180 440 447
1062 169 395 386 904 545 1280 461 1089 629 1488 700 1660 45 110 143 346 217
525 74 179 164 396 199 482 l64 158 445 0 445 0 217 -543z"/>
<path d="M4990 8437 c-20 -12 -30 -26 -27 -36 9 -36 170 -447 178 -455 4 -5
54 -26 110 -47 293 -111 572 -300 824 -560 197 -203 317 -371 441 -619 171
-343 238 -632 238 -1030 1 -372 -70 -687 -230 -1019 -35 -74 -64 -143 -64
-155 0 -21 163 -393 179 -409 4 -4 20 -5 35 -1 32 8 75 71 178 259 159 289
263 591 319 925 31 182 34 617 6 805 -93 627 -367 1175 -807 1616 -360 361
-737 577 -1262 722 l-86 24 -32 -20z m210 -63 c802 -230 1450 -826 1775 -1634
98 -245 159 -502 186 -790 14 -155 6 -485 -16 -630 -59 -383 -190 -736 -403
-1087 l-55 -92 -89 197 -88 197 54 115 c176 373 246 673 246 1058 0 257 -25
437 -92 671 -76 265 -228 558 -416 801 -85 109 -262 292 -374 385 -176 148
-430 299 -627 374 -56 21 -106 42 -110 47 -7 8 -150 373 -165 421 -6 20 -5 21
21 12 15 -5 84 -25 153 -45z"/>
<path d="M3395 8383 c-214 -83 -289 -115 -408 -176 -533 -272 -957 -701 -1231
-1247 -214 -428 -307 -858 -293 -1359 10 -374 78 -674 231 -1021 76 -174 95
-194 145 -152 11 9 63 118 116 242 l95 225 -35 102 c-78 234 -109 440 -108
728 1 481 127 898 392 1296 231 347 509 599 862 779 64 33 122 66 129 75 11
13 169 417 187 478 6 19 -13 48 -31 46 -6 -1 -29 -8 -51 -16z m-34 -252 l-88
-233 -91 -48 c-234 -123 -399 -241 -572 -407 -295 -283 -530 -666 -638 -1044
-134 -465 -132 -954 6 -1387 l38 -117 -92 -218 c-50 -120 -94 -220 -96 -222
-7 -7 -100 192 -142 303 -192 503 -225 1068 -94 1617 91 383 282 773 538 1095
98 124 290 318 410 414 238 190 529 348 850 463 30 11 56 19 57 18 1 0 -37
-106 -86 -234z"/>
<path d="M5699 6893 c-9 -8 -58 -145 -110 -304 l-94 -289 -305 0 -305 0 -27
-25 c-15 -14 -25 -31 -22 -38 3 -6 120 -97 260 -202 139 -104 254 -192 254
-194 0 -3 -43 -139 -96 -303 -53 -165 -93 -305 -90 -313 7 -20 35 -19 71 4 17
11 125 90 240 176 116 86 217 160 225 165 11 5 85 -44 250 -167 129 -96 245
-181 258 -190 18 -13 27 -13 51 -3 16 6 32 18 35 26 3 7 -40 148 -95 311 -55
164 -98 303 -97 310 2 6 111 93 243 193 132 99 246 189 253 199 11 16 10 21
-3 35 -14 14 -54 16 -325 16 l-308 0 -98 293 c-53 160 -99 298 -101 305 -7 16
-44 14 -64 -5z m140 -320 l97 -298 324 -5 c307 -5 323 -6 299 -22 -18 -11
-385 -288 -498 -374 -2 -2 44 -143 103 -314 58 -170 104 -310 101 -310 -2 0
-122 87 -267 193 l-263 194 -95 -71 c-230 -170 -406 -300 -417 -308 -12 -9 -6
11 113 379 41 128 73 236 70 240 -2 5 -119 94 -260 198 l-255 190 323 3 322 2
99 305 c54 168 100 303 103 301 2 -3 48 -139 101 -303z"/>
<path d="M5356 5029 c-102 -75 -136 -106 -136 -122 0 -12 76 -204 169 -427
247 -592 308 -731 323 -745 13 -12 56 -38 442 -262 l179 -104 203 3 c265 4
255 -4 187 155 -28 65 -94 219 -146 343 -52 124 -192 454 -311 734 -119 280
-221 513 -228 518 -7 4 -133 8 -280 8 l-267 0 -135 -101z m819 -286 c83 -196
243 -575 356 -842 l206 -486 -177 -3 -177 -2 -74 41 c-159 90 -535 312 -547
324 -15 14 -103 217 -334 770 -83 198 -152 365 -155 371 -2 6 49 50 113 97
l117 87 261 0 261 -1 150 -356z"/>
<path d="M2775 3659 c-188 -105 -225 -131 -225 -159 0 -9 39 -46 88 -82 325
-243 724 -425 1112 -507 376 -79 819 -74 1220 15 294 65 665 221 917 386 158
102 160 95 -69 231 l-181 107 -181 -90 c-213 -105 -396 -170 -596 -210 -630
-126 -1250 -8 -1791 342 -58 37 -108 68 -110 68 -2 0 -85 -46 -184 -101z m281
5 c123 -82 384 -211 523 -259 238 -82 463 -124 706 -132 427 -15 802 67 1178
256 l172 86 168 -100 c92 -55 167 -103 167 -107 0 -15 -234 -154 -375 -223
-420 -205 -847 -296 -1329 -282 -111 3 -248 13 -306 22 -469 73 -890 249
-1273 533 l-88 65 73 42 c125 72 283 163 284 164 0 1 45 -29 100 -65z"/>
<path d="M4717 2708 l-28 -28 2 -427 c2 -245 7 -433 12 -440 15 -20 266 -18
295 3 l22 15 0 445 c0 371 -2 446 -14 450 -8 3 -69 6 -137 7 -123 2 -124 2
-152 -25z m273 -437 l0 -429 -120 1 -120 2 0 428 0 427 120 0 120 0 0 -429z"/>
<path d="M1778 2690 c-18 -21 -53 -83 -78 -137 -24 -54 -83 -181 -130 -283
-197 -420 -205 -441 -186 -456 23 -16 240 -12 276 5 14 7 41 40 60 74 l35 62
220 0 220 0 36 -68 c20 -38 41 -72 47 -76 6 -3 67 -5 137 -4 96 1 132 6 151
18 13 8 24 19 24 24 0 14 -379 830 -403 869 -6 9 -56 12 -192 12 l-183 0 -34
-40z m451 -128 c92 -194 279 -597 306 -659 l24 -53 -120 0 -119 0 -37 75 -37
75 -253 0 -253 0 -37 -75 -37 -75 -119 0 c-91 0 -118 3 -114 13 43 101 361
788 378 816 13 20 21 21 184 21 l170 0 64 -138z"/>
<path d="M1958 2448 c-29 -50 -128 -245 -128 -253 0 -3 72 -5 161 -5 l161 0
-72 138 c-40 75 -78 143 -85 150 -10 11 -17 6 -37 -30z m56 -132 c26 -45 46
-86 46 -90 0 -3 -40 -6 -90 -6 -49 0 -90 2 -90 5 0 6 84 175 87 175 1 0 22
-38 47 -84z"/>
<path d="M2671 2704 c-21 -27 -21 -34 -19 -458 l3 -431 385 -5 c335 -4 389 -3
415 11 l30 15 3 103 c2 67 -1 108 -9 117 -9 11 -60 14 -260 14 l-249 0 0 318
c0 234 -3 321 -12 330 -8 8 -54 12 -139 12 -126 0 -128 0 -148 -26z m266 -334
l-2 -330 263 0 262 0 0 -95 0 -95 -375 0 -375 0 0 425 0 425 115 0 114 0 -2
-330z"/>
<path d="M3592 2710 l-22 -18 2 -439 3 -438 390 -3 c430 -3 468 1 559 58 64
41 88 93 94 201 5 96 -6 143 -44 188 l-24 29 22 44 c19 36 23 59 23 138 0 83
-3 100 -24 133 -13 22 -42 52 -64 68 -77 56 -104 59 -516 59 -353 -1 -377 -2
-399 -20z m815 -25 c121 -36 168 -106 161 -239 -3 -65 -8 -81 -35 -120 l-32
-46 28 -21 c48 -35 64 -84 59 -180 -6 -137 -40 -182 -163 -214 -48 -12 -129
-15 -432 -15 l-373 0 0 425 0 425 368 0 c297 0 378 -3 419 -15z"/>
<path d="M3842 2433 l3 -78 236 0 c185 0 239 3 252 14 20 16 24 110 5 129 -9
9 -79 12 -255 12 l-244 0 3 -77z m439 27 c12 -7 19 -21 19 -40 l0 -30 -215 0
-215 0 0 33 c0 19 3 37 7 40 11 11 382 8 404 -3z"/>
<path d="M3840 2110 l0 -90 243 0 c288 0 287 0 287 85 0 43 -5 58 -22 75 -21
19 -34 20 -265 20 l-243 0 0 -90z m470 14 c6 -14 10 -36 10 -50 l0 -24 -225 0
-225 0 0 43 c0 24 3 47 7 50 3 4 100 7 215 7 l208 0 10 -26z"/>
<path d="M5327 2719 c-86 -20 -157 -75 -188 -143 -16 -36 -18 -75 -20 -307 -2
-258 -1 -268 20 -313 28 -57 88 -110 149 -130 69 -24 647 -23 718 1 86 29 150
80 187 148 21 38 22 53 22 295 l0 255 -30 54 c-18 32 -49 68 -75 87 -84 62
-101 64 -439 63 -168 -1 -323 -5 -344 -10z m718 -45 c51 -28 91 -68 119 -119
20 -38 21 -53 21 -285 0 -232 -1 -247 -22 -285 -28 -52 -57 -79 -118 -107 -48
-22 -62 -23 -348 -26 -357 -4 -384 1 -459 78 -30 31 -51 64 -58 90 -7 27 -10
128 -8 288 3 234 4 249 26 289 12 24 36 50 55 59 77 41 102 43 432 41 306 -2
322 -3 360 -23z"/>
<path d="M5410 2490 c-19 -19 -20 -33 -20 -209 0 -258 -26 -235 271 -239 128
-2 243 -1 255 2 45 12 54 50 54 236 l0 172 -29 29 -29 29 -241 0 c-228 0 -242
-1 -261 -20z m484 -49 c14 -16 16 -41 14 -192 l-3 -174 -233 0 c-196 0 -234 2
-242 15 -5 8 -10 95 -10 193 l0 177 228 0 c210 0 230 -2 246 -19z"/>
<path d="M6342 2707 l-22 -24 2 -439 3 -439 125 -3 c86 -1 133 2 150 11 l25
13 5 247 5 248 140 -172 c289 -354 269 -333 331 -340 105 -12 280 -4 308 15
l26 16 0 433 c0 323 -3 436 -12 445 -8 8 -53 12 -138 12 -180 0 -170 17 -170
-275 l0 -230 -24 25 c-13 14 -69 82 -123 151 -54 69 -135 172 -181 228 l-83
101 -173 0 c-168 0 -173 -1 -194 -23z m423 -93 c93 -113 195 -243 308 -386 50
-65 94 -118 98 -118 3 0 6 8 6 18 -1 9 0 142 1 295 l2 277 116 0 115 0 -2
-425 -1 -425 -153 0 -153 0 -108 133 c-60 72 -173 210 -251 305 l-143 173 0
-311 0 -310 -115 0 -115 0 0 430 0 430 163 0 163 0 69 -86z"/>
<path d="M2360 1690 c-63 -14 -120 -58 -150 -116 -24 -47 -25 -55 -25 -249 0
-230 7 -255 84 -310 l43 -30 246 0 247 0 58 28 c64 32 100 72 116 132 14 52
14 348 0 400 -16 58 -55 104 -108 128 -41 19 -68 21 -256 23 -115 2 -230 -1
-255 -6z m495 -39 c90 -36 108 -94 103 -329 -3 -199 -11 -223 -78 -265 -33
-21 -48 -22 -280 -25 -242 -3 -246 -3 -279 20 -74 50 -76 57 -79 278 -5 332 5
342 378 336 130 -2 216 -8 235 -15z"/>
<path d="M2405 1496 c-17 -12 -20 -30 -23 -142 -4 -120 -2 -131 18 -156 l21
-28 174 0 174 0 20 26 c19 24 21 40 21 155 0 103 -3 131 -16 143 -22 22 -360
24 -389 2z m329 -32 c13 -5 16 -27 16 -135 l0 -129 -162 2 -163 3 -3 133 -3
132 150 0 c82 0 156 -3 165 -6z"/>
<path d="M3088 1672 l-28 -24 0 -322 c0 -237 3 -325 12 -334 7 -7 44 -12 96
-12 79 0 118 10 134 34 4 6 8 65 8 131 l1 120 72 -140 72 -140 77 -3 c43 -2
87 2 98 8 11 6 53 75 93 153 l72 142 5 -150 5 -150 96 0 c67 0 101 4 112 14
15 12 17 49 17 340 0 241 -3 330 -12 339 -8 8 -53 12 -138 12 -125 0 -127 0
-151 -27 -14 -16 -59 -101 -99 -191 l-74 -163 -22 43 c-12 24 -47 104 -79 178
-32 74 -63 140 -68 147 -5 8 -53 13 -140 15 -125 3 -133 2 -159 -20z m337
-149 c32 -76 76 -174 98 -218 l39 -79 28 54 c16 30 61 128 102 217 l73 163
118 0 117 0 0 -320 0 -320 -75 0 -75 0 -2 216 -3 216 -109 -216 -109 -216 -61
0 -61 0 -110 216 -110 216 -5 -214 -5 -213 -78 0 -77 0 0 318 0 317 123 0 123
0 59 -137z"/>
<path d="M1514 1680 c-46 -11 -101 -47 -132 -88 l-27 -35 -3 -226 c-3 -260 1
-277 79 -321 42 -24 51 -25 253 -28 143 -2 224 0 253 9 67 18 129 63 153 108
22 44 27 120 8 139 -8 8 -44 12 -97 12 -69 -1 -90 -4 -108 -19 -13 -11 -23
-24 -23 -30 0 -7 -46 -11 -140 -11 l-140 0 0 140 0 140 128 0 c124 0 129 -1
152 -25 21 -23 31 -25 101 -25 120 0 147 20 134 99 -12 72 -68 134 -144 160
-38 12 -396 14 -447 1z m461 -39 c48 -22 69 -44 90 -94 30 -71 25 -77 -63 -77
-66 0 -79 3 -90 20 -11 19 -23 20 -170 20 -110 0 -162 -4 -170 -12 -17 -17
-17 -309 0 -326 8 -8 60 -12 168 -12 161 0 180 4 180 42 0 16 10 18 80 18 l80
0 0 -36 c0 -79 -52 -134 -147 -154 -32 -7 -123 -10 -230 -8 -168 3 -181 4
-223 28 -73 41 -80 64 -80 280 0 200 7 244 44 279 46 43 88 50 296 50 168 1
200 -2 235 -18z"/>
<path d="M4142 1667 c-22 -23 -22 -26 -20 -353 l3 -329 90 -3 c59 -1 99 2 115
11 23 12 25 18 25 92 l0 80 170 6 c202 6 256 20 309 79 43 48 49 77 44 223 -3
113 -4 117 -33 148 -62 66 -78 69 -396 69 l-286 0 -21 -23z m623 -23 c18 -8
43 -26 56 -40 23 -24 24 -32 24 -159 0 -120 -2 -136 -21 -162 -40 -53 -60 -58
-293 -61 l-214 -3 5 -100 5 -99 -79 0 -78 0 0 320 0 320 281 0 c234 0 287 -3
314 -16z"/>
<path d="M4325 1520 c-2 -3 -4 -38 -4 -78 l0 -72 165 0 c95 0 174 4 185 10 15
9 19 22 19 64 0 32 -5 58 -13 64 -13 11 -346 22 -352 12z m303 -52 c7 -7 12
-25 12 -40 l0 -28 -140 0 -140 0 0 40 0 40 128 0 c86 0 132 -4 140 -12z"/>
<path d="M5102 1674 c-25 -17 -65 -94 -227 -436 -60 -127 -105 -234 -101 -243
4 -12 26 -15 110 -15 58 0 116 5 129 11 13 6 35 34 50 65 l27 54 122 -1 c68
-1 134 -4 147 -8 16 -4 32 -24 50 -61 l26 -55 96 -3 c98 -3 145 7 155 31 6 16
-276 629 -302 658 -15 17 -33 19 -138 19 -95 0 -127 -4 -144 -16z m325 -151
c37 -76 103 -219 148 -318 l82 -180 -75 -3 c-41 -2 -81 -1 -89 2 -7 3 -25 33
-40 66 l-26 60 -176 -2 -176 -3 -30 -62 -29 -63 -97 0 -98 0 66 138 c36 75
105 219 154 320 l88 182 116 0 116 0 66 -137z"/>
<path d="M5201 1420 c-28 -58 -51 -111 -51 -117 0 -10 28 -13 106 -13 124 0
120 -12 44 140 l-48 95 -51 -105z m79 -92 c0 -5 -20 -8 -45 -8 -25 0 -45 2
-45 5 0 2 10 25 22 50 l22 46 23 -43 c12 -24 22 -46 23 -50z"/>
<path d="M5752 1667 c-22 -23 -22 -26 -20 -353 l3 -329 95 -3 c149 -4 144 -10
150 189 l5 165 144 -179 144 -179 122 4 c85 2 127 7 138 17 15 12 17 49 17
340 0 241 -3 330 -12 339 -8 8 -44 12 -97 12 -71 -1 -90 -4 -110 -21 -23 -19
-24 -22 -22 -179 1 -88 0 -160 -3 -160 -3 0 -67 78 -143 173 -75 94 -142 175
-148 179 -5 4 -62 8 -126 8 -108 0 -117 -1 -137 -23z m380 -174 c73 -93 151
-191 173 -220 22 -29 43 -52 48 -53 4 0 7 99 7 220 l0 220 80 0 80 0 0 -320 0
-321 -102 3 -102 3 -180 224 -181 224 -3 -226 -2 -227 -85 0 -85 0 0 320 0
320 109 0 109 0 134 -167z"/>
<path d="M6610 1665 c-31 -33 -28 -39 124 -218 198 -233 181 -201 183 -336 1
-64 2 -119 3 -123 0 -5 40 -8 90 -8 87 0 139 13 141 34 0 6 0 62 -1 124 l-1
113 65 82 c35 45 108 135 160 200 53 65 96 120 96 122 0 2 -7 11 -16 19 -22
22 -185 23 -218 1 -13 -8 -61 -58 -107 -110 -46 -52 -86 -95 -89 -95 -3 0 -40
39 -82 88 -127 146 -104 132 -222 132 -96 0 -104 -1 -126 -25z m322 -124 c57
-66 106 -120 110 -120 3 -1 55 53 114 119 l107 120 84 0 c45 0 83 -3 83 -6 0
-3 -44 -60 -97 -126 -54 -65 -124 -153 -155 -195 l-58 -76 0 -118 0 -119 -75
0 -75 0 0 123 -1 122 -122 146 c-67 80 -142 169 -165 197 l-44 52 95 0 95 0
104 -119z"/>
<path d="M1361 826 c-18 -19 -22 -33 -19 -72 l3 -49 3005 -3 c1653 -1 3015 0
3027 3 12 3 29 12 37 21 19 18 22 94 4 112 -9 9 -695 12 -3023 12 l-3012 0
-22 -24z m6039 -41 l0 -35 -3005 0 -3005 0 0 35 0 35 3005 0 3005 0 0 -35z"/>
<path d="M1367 567 c-26 -22 -27 -25 -27 -145 0 -119 1 -123 24 -133 18 -9 32
-7 64 9 29 14 44 16 51 9 8 -8 23 -8 51 -1 31 9 40 8 44 -3 7 -18 66 -17 94 3
21 14 22 22 22 138 0 134 -4 146 -56 146 -31 0 -69 -32 -100 -86 -10 -17 -13
-15 -34 26 -12 25 -28 48 -34 52 -23 15 -73 8 -99 -15z m124 -89 l41 -81 41
81 c34 66 46 82 64 82 23 0 23 -2 23 -115 0 -103 -2 -115 -17 -115 -16 0 -18
10 -18 72 0 40 -4 75 -10 78 -5 3 -23 -28 -40 -67 -16 -40 -34 -72 -40 -72 -5
0 -25 33 -44 75 -40 86 -51 83 -51 -18 0 -61 -2 -68 -20 -68 -19 0 -20 7 -20
115 l0 115 25 0 c21 0 31 -12 66 -82z"/>
<path d="M1731 567 c-20 -22 -21 -32 -19 -148 l3 -124 95 -3 c111 -2 143 9
148 52 2 16 -1 33 -6 38 -6 6 -8 26 -5 44 3 19 1 40 -6 48 -9 10 -8 16 4 26
18 15 20 61 3 78 -8 8 -46 12 -103 12 -83 0 -94 -2 -114 -23z m199 -27 c0 -18
-7 -20 -65 -20 l-65 0 0 -30 0 -30 60 0 c53 0 60 -2 60 -20 0 -18 -7 -20 -55
-20 -52 0 -55 -1 -55 -25 0 -24 3 -25 60 -25 53 0 60 -2 60 -20 0 -18 -7 -20
-85 -20 l-85 0 0 115 0 115 85 0 c78 0 85 -2 85 -20z"/>
<path d="M1996 569 c-26 -20 -26 -23 -26 -143 0 -81 4 -126 12 -134 18 -18 49
-15 87 9 28 17 35 18 45 6 19 -25 59 -28 94 -7 35 22 39 38 18 78 -12 24 -12
30 0 47 17 23 18 88 2 118 -20 39 -40 46 -124 47 -67 0 -86 -4 -108 -21z m198
-31 c21 -29 20 -82 -1 -103 -17 -17 -17 -19 12 -87 5 -14 2 -18 -14 -18 -15 0
-27 13 -42 45 -18 38 -26 45 -50 45 -28 0 -29 -2 -29 -45 0 -38 -3 -45 -20
-45 -19 0 -20 7 -20 115 l0 115 74 0 c66 0 77 -3 90 -22z"/>
<path d="M2070 490 c0 -31 0 -31 48 -28 43 3 47 5 47 28 0 23 -4 25 -47 28
-48 3 -48 3 -48 -28z"/>
<path d="M2303 570 c-46 -28 -53 -48 -53 -153 0 -121 5 -127 119 -127 114 0
161 27 161 92 0 46 -46 63 -86 33 -10 -8 -31 -15 -46 -15 -26 0 -28 3 -28 40
0 44 5 47 39 24 25 -18 82 -14 107 7 30 25 12 83 -33 107 -36 20 -143 15 -180
-8z m187 -30 c17 -26 12 -50 -10 -50 -11 0 -20 7 -20 15 0 13 -11 15 -57 13
l-58 -3 0 -70 0 -70 54 -3 c41 -2 57 1 63 12 14 25 38 19 38 -9 0 -33 -27 -45
-104 -45 -87 0 -96 10 -96 108 0 56 5 84 16 101 15 21 22 23 91 19 51 -2 77
-8 83 -18z"/>
<path d="M2572 567 c-20 -21 -22 -34 -22 -145 0 -86 4 -123 13 -129 20 -13
189 -3 215 13 23 15 31 67 13 79 -5 3 -7 21 -4 40 3 20 1 41 -6 49 -9 10 -8
16 4 26 18 15 20 61 3 78 -8 8 -46 12 -103 12 -83 0 -94 -2 -113 -23z m198
-27 c0 -18 -7 -20 -65 -20 l-65 0 0 -30 0 -30 60 0 c53 0 60 -2 60 -20 0 -18
-7 -20 -60 -20 -57 0 -60 -1 -60 -25 0 -24 2 -25 65 -25 58 0 65 -2 65 -20 0
-18 -7 -20 -85 -20 l-86 0 3 115 3 115 82 0 c76 0 83 -2 83 -20z"/>
<path d="M2842 567 c-20 -21 -22 -34 -22 -149 0 -100 3 -127 14 -131 23 -9 84
12 100 35 l15 21 23 -26 c34 -38 59 -41 101 -12 34 22 37 23 37 6 0 -19 18
-31 49 -31 9 0 32 13 51 30 43 36 55 37 75 6 22 -33 53 -39 90 -18 29 17 31
17 48 0 18 -20 47 -17 99 7 23 11 29 11 40 -2 17 -20 97 -12 114 12 11 14 11
24 -1 51 -10 25 -11 41 -3 66 6 18 13 39 15 47 2 8 18 -9 38 -40 25 -39 35
-66 35 -96 0 -63 45 -82 101 -42 24 17 29 27 29 62 0 33 10 59 46 117 52 83
51 103 -6 108 -26 3 -40 -3 -67 -30 l-34 -33 -25 33 c-30 38 -63 42 -101 12
-25 -20 -25 -20 -50 0 -21 16 -41 20 -108 20 -71 0 -85 -3 -108 -23 -25 -21
-27 -29 -27 -102 l0 -80 -46 95 c-48 102 -55 110 -95 110 -53 0 -95 -57 -150
-205 l-18 -50 -1 116 c0 76 -4 119 -12 127 -22 22 -65 14 -91 -17 l-25 -30
-26 30 c-32 36 -74 39 -104 6z m85 -32 c57 -80 85 -115 93 -115 6 0 10 32 10
70 0 63 2 70 20 70 19 0 20 -7 20 -115 0 -144 -11 -149 -88 -40 -29 42 -58 73
-63 70 -5 -4 -9 -37 -9 -76 0 -62 -2 -69 -20 -69 -19 0 -20 7 -20 115 0 107 1
115 20 115 10 0 27 -11 37 -25z m405 -59 c21 -45 41 -97 44 -114 6 -28 4 -32
-14 -32 -13 0 -22 9 -26 25 -6 23 -11 25 -65 25 -54 0 -59 -2 -65 -25 -4 -17
-13 -25 -27 -25 -19 0 -21 4 -16 30 4 16 23 68 43 115 33 75 40 85 63 85 23 0
31 -11 63 -84z m306 72 c18 -18 15 -98 -4 -119 -14 -16 -14 -21 6 -58 l20 -41
-24 0 c-20 0 -28 9 -42 45 -15 41 -20 45 -51 45 l-35 0 4 -45 c3 -41 1 -45
-19 -45 -23 0 -23 2 -23 115 l0 115 78 0 c47 0 83 -5 90 -12z m163 -38 c17
-28 34 -48 39 -45 5 3 21 25 37 50 20 32 35 45 51 45 l24 0 -23 -37 c-13 -21
-33 -54 -46 -73 -15 -23 -23 -49 -23 -77 0 -36 -3 -43 -20 -43 -17 0 -20 7
-20 41 0 30 -10 54 -40 99 -53 79 -57 90 -31 90 15 0 31 -15 52 -50z"/>
<path d="M3245 470 c-10 -22 -16 -43 -13 -46 3 -3 24 -4 47 -2 l40 3 -19 43
c-10 23 -23 42 -28 42 -5 0 -17 -18 -27 -40z"/>
<path d="M3518 495 c-7 -32 -3 -35 49 -35 41 0 43 1 43 30 0 29 -2 30 -44 30
-39 0 -44 -3 -48 -25z"/>
<path d="M4183 570 c-46 -27 -53 -48 -53 -147 0 -127 6 -133 123 -133 71 0 98
4 117 17 44 30 49 44 50 136 0 85 -1 90 -29 118 -27 27 -35 29 -103 29 -55 0
-81 -5 -105 -20z m191 -32 c11 -16 16 -46 16 -97 0 -100 -10 -111 -103 -111
-98 0 -107 10 -107 113 0 107 9 117 106 117 64 0 75 -3 88 -22z"/>
<path d="M4230 445 l0 -75 55 0 55 0 0 75 0 75 -55 0 -55 0 0 -75z m60 -16 c0
-19 -5 -29 -15 -29 -11 0 -15 11 -15 41 0 36 2 40 15 29 8 -7 15 -25 15 -41z"/>
<path d="M4451 567 c-20 -22 -21 -32 -19 -148 l3 -124 47 1 c29 0 54 7 65 17
17 15 20 15 31 -3 19 -32 100 -22 124 14 5 7 13 3 24 -12 16 -23 21 -24 116
-20 98 3 100 4 129 35 27 31 29 37 28 120 -2 81 -4 89 -30 115 -24 25 -35 28
-93 28 -76 0 -111 -11 -143 -46 -20 -22 -23 -35 -23 -112 -1 -80 -2 -85 -16
-67 -9 12 -13 30 -10 48 3 15 9 40 12 56 9 42 -12 96 -42 110 -14 6 -60 11
-103 11 -68 0 -80 -3 -100 -23z m197 -19 c21 -27 24 -77 7 -106 -16 -26 -16
-31 -1 -60 21 -40 20 -52 -2 -52 -11 0 -26 16 -40 45 -19 39 -26 45 -52 45
-29 0 -30 -2 -30 -45 0 -41 -2 -45 -25 -45 l-25 0 0 115 0 115 79 0 c51 0 82
-4 89 -12z m300 -4 c31 -21 29 -54 -3 -54 -16 0 -25 6 -25 15 0 22 -105 21
-114 -1 -10 -27 -6 -110 6 -122 7 -7 34 -12 60 -12 41 0 48 3 48 20 0 16 -7
20 -35 20 -28 0 -35 4 -35 20 0 18 7 20 60 20 l60 0 0 -40 c0 -61 -25 -80
-107 -80 -94 0 -103 10 -103 116 0 102 11 114 105 114 39 0 69 -6 83 -16z"/>
<path d="M4530 490 c0 -29 2 -30 44 -30 39 0 44 3 48 25 7 32 3 35 -49 35 -41
0 -43 -1 -43 -30z"/>
<path d="M5108 563 c-36 -38 -110 -207 -106 -241 3 -25 6 -27 52 -26 38 0 53
5 67 23 22 27 54 21 62 -11 5 -18 11 -20 47 -15 53 7 70 22 70 61 0 35 -74
216 -93 228 -27 17 -73 8 -99 -19z m123 -93 c41 -91 49 -140 24 -140 -8 0 -17
11 -21 25 -6 25 -9 26 -68 23 -55 -3 -61 -5 -64 -25 -2 -15 -10 -23 -23 -23
-30 0 -24 34 23 138 38 84 44 93 67 90 21 -3 31 -17 62 -88z"/>
<path d="M5141 468 l-18 -43 40 -3 c21 -2 41 -1 44 2 8 8 -23 80 -36 84 -6 2
-19 -16 -30 -40z"/>
<path d="M5336 569 l-27 -21 3 -126 3 -127 29 -3 c34 -4 82 14 90 35 5 11 11
9 28 -10 32 -35 67 -40 106 -17 l32 20 0 123 c0 132 -5 147 -50 147 -26 0 -63
-31 -72 -59 -3 -10 -13 -3 -32 22 -33 43 -69 49 -110 16z m123 -84 c30 -41 58
-75 63 -75 4 0 8 34 8 75 0 68 2 75 20 75 19 0 20 -7 20 -115 0 -108 -1 -115
-20 -115 -13 0 -39 25 -75 75 -31 41 -60 75 -65 75 -6 0 -10 -34 -10 -75 0
-60 -3 -75 -15 -75 -12 0 -15 19 -15 115 0 144 10 148 89 40z"/>
<path d="M5651 567 c-20 -22 -21 -32 -19 -148 l3 -124 42 1 c69 1 73 9 73 148
0 82 -4 126 -12 134 -20 20 -63 14 -87 -11z m69 -122 c0 -108 -1 -115 -20
-115 -19 0 -20 7 -20 115 0 108 1 115 20 115 19 0 20 -7 20 -115z"/>
<path d="M5801 566 c-31 -33 -26 -80 9 -84 51 -6 52 -10 5 -68 -37 -45 -45
-63 -43 -88 l3 -31 105 -3 c123 -2 153 8 158 54 4 36 -11 51 -56 56 l-33 3 45
53 c47 55 58 96 34 120 -8 8 -47 12 -108 12 -89 0 -98 -2 -119 -24z m209 -25
c0 -11 -27 -51 -60 -89 -33 -38 -57 -72 -53 -76 3 -3 30 -6 60 -6 46 0 53 -2
53 -20 0 -19 -7 -20 -90 -20 l-90 0 0 27 c0 19 18 45 63 92 l62 66 -62 3 c-55
3 -63 6 -63 22 0 18 7 20 90 20 82 0 90 -2 90 -19z"/>
<path d="M6162 570 c-35 -29 -104 -193 -100 -238 3 -37 3 -37 47 -36 33 1 49
7 62 22 23 29 45 28 66 -4 15 -23 22 -25 57 -21 47 7 68 30 60 66 -7 33 -74
202 -87 219 -14 18 -79 14 -105 -8z m121 -102 c51 -131 52 -138 29 -138 -13 0
-22 9 -26 25 -6 23 -10 25 -71 25 -63 0 -65 -1 -65 -25 0 -18 -5 -25 -18 -25
-17 0 -18 5 -12 43 4 23 18 67 32 97 14 30 28 63 31 73 4 11 17 17 35 17 27 0
31 -6 65 -92z"/>
<path d="M6195 481 c-25 -49 -20 -61 25 -61 22 0 40 2 40 4 0 12 -31 76 -39
81 -6 3 -17 -8 -26 -24z"/>
<path d="M6381 566 c-33 -35 -26 -79 14 -86 l30 -5 5 -90 5 -90 29 -3 c33 -4
86 15 87 32 0 6 0 39 -1 72 -1 59 14 94 40 94 15 0 40 31 40 50 0 40 -26 50
-129 50 -90 0 -99 -2 -120 -24z m215 -23 c-2 -13 -14 -19 -39 -21 l-37 -3 0
-95 c0 -83 -2 -94 -17 -94 -16 0 -18 10 -15 95 l3 95 -40 0 c-34 0 -41 3 -41
20 0 19 7 20 94 20 84 0 94 -2 92 -17z"/>
<path d="M6671 567 c-20 -22 -21 -32 -19 -148 l3 -124 42 1 c69 1 73 9 73 148
0 82 -4 126 -12 134 -20 20 -63 14 -87 -11z m69 -122 c0 -108 -1 -115 -20
-115 -19 0 -20 7 -20 115 0 108 1 115 20 115 19 0 20 -7 20 -115z"/>
<path d="M6847 559 l-37 -30 0 -104 c0 -128 6 -135 117 -135 81 0 112 9 142
41 18 20 21 35 21 116 0 86 -2 96 -25 118 -21 22 -33 25 -102 25 -73 0 -81 -2
-116 -31z m197 -15 c23 -23 23 -170 -1 -196 -22 -25 -138 -26 -165 -1 -25 23
-26 167 -1 195 22 24 143 26 167 2z"/>
<path d="M6904 506 c-3 -7 -4 -40 -2 -72 l3 -59 58 -3 57 -3 0 76 0 75 -55 0
c-38 0 -57 -4 -61 -14z m54 -38 c7 -7 12 -25 12 -40 0 -21 -5 -28 -20 -28 -17
0 -20 7 -20 40 0 41 7 49 28 28z"/>
<path d="M7151 567 c-20 -22 -21 -32 -19 -148 l3 -124 33 -3 c41 -4 82 21 82
51 0 18 4 16 26 -17 25 -37 28 -38 70 -33 71 8 74 13 74 151 0 82 -4 126 -12
134 -23 23 -65 14 -93 -20 l-27 -32 -25 32 c-31 40 -78 44 -112 9z m116 -64
c23 -32 50 -67 62 -77 l21 -19 0 76 c0 70 2 77 20 77 19 0 20 -7 20 -115 0
-106 -1 -115 -19 -115 -12 0 -38 26 -70 69 -80 107 -81 107 -81 12 0 -74 -2
-81 -20 -81 -19 0 -20 7 -20 115 0 114 0 115 24 115 17 0 34 -15 63 -57z"/>
</g>
</svg>
